<svg width="213" height="192" viewBox="0 0 213 192" fill="none" xmlns="http://www.w3.org/2000/svg" color="#073758">
  <g>
    <path
      d="M39.3783 56.8013C31.4502 68.2252 26.8314 82.0032 26.3477 96.0722C26.1009 103.109 26.3162 111.375 30.7082 117.288C34.7231 122.687 41.3804 123.749 47.526 122.814C54.8239 121.704 61.6894 118.125 68.0147 114.505C75.424 110.259 82.3898 105.283 89.6016 100.698C93.054 98.5034 96.5561 96.26 100.278 94.5562C103.268 93.1746 106.62 92.3765 109.737 94.0175C115.378 96.9733 116.21 105.033 115.828 110.636C115.301 118.537 112.987 126.17 110.162 133.465C107.336 140.76 103.941 147.595 99.8815 154.126C92.1173 166.635 81.1446 180.68 65.6263 182.769C62.3819 183.206 58.679 182.933 56.052 180.664C53.425 178.394 52.6034 175.182 52.6717 171.956C52.8181 164.682 56.9679 158.034 61.1683 152.488C65.813 146.373 71.4405 141.103 77.3431 136.261C83.2456 131.418 89.398 127.05 95.8408 123.065C121.934 106.935 152.183 97.9069 182.907 96.7983C186.743 96.6621 190.587 96.6457 194.43 96.7289C195.457 96.7492 196.534 95.8543 197.05 95.0275C197.426 94.4159 197.7 93.333 196.648 93.2871C180.74 92.6396 164.769 94.3616 149.35 98.0377C133.931 101.714 118.717 107.483 104.666 115.09C90.6153 122.697 77.3208 131.976 66.0467 143.291C60.4195 148.944 55.4473 155.314 51.8758 162.517C49.07 168.168 46.9783 176.576 51.2214 182.2C55.8708 188.375 64.9565 186.565 71.0238 184.367C78.6563 181.588 85.1976 176.355 90.6999 170.464C101.629 158.78 109.791 143.916 115.085 128.753C117.645 121.41 119.774 113.592 119.663 105.698C119.585 99.8669 117.607 92.3262 111.474 90.173C108.003 88.9599 104.3 89.937 101.098 91.3572C97.2976 93.0487 93.7068 95.3094 90.1855 97.5123C82.7268 102.19 75.5668 107.369 67.949 111.788C61.6132 115.462 54.4499 119.282 46.9729 119.759C43.8935 119.958 40.7575 119.551 37.9939 118.016C34.6247 116.148 32.4882 112.742 31.3472 109.112C29.0985 101.947 29.4966 93.7736 30.5574 86.4867C31.6182 79.1999 33.7453 72.3479 36.8806 65.8593C38.408 62.696 40.2137 59.6854 42.2045 56.8098C42.6198 56.2043 42.739 55.2812 41.8261 55.1696C40.9132 55.0581 39.849 56.0829 39.3639 56.771L39.3783 56.8013Z"
      fill="currentColor" />
    <path
      d="M170.075 106.997C179.955 103.671 189.846 100.34 199.464 96.2842C200.25 95.9487 203.071 93.1373 200.867 92.8831C195.006 92.1976 189.173 91.2388 183.393 89.9828C177.613 88.7267 172.012 86.9278 166.278 85.5137C164.959 85.1859 161.719 88.1344 163.382 88.8061C168.944 91.0322 174.974 92.3554 180.799 93.6028C186.623 94.8503 192.584 95.8227 198.533 96.5159L199.935 93.1148C190.632 97.0456 181.072 100.306 171.507 103.532C170.476 103.885 169.371 104.62 168.979 105.709C168.679 106.532 169.087 107.341 170.07 107.012L170.075 106.997Z"
      fill="currentColor" />
  </g>
  <path
    d="M88.821 45.2058C89.1308 44.2238 89.5632 43.3265 90.1182 42.5138C90.7007 41.6868 91.3602 40.9071 92.0966 40.1746C92.4583 39.8292 92.8551 39.518 93.2871 39.2408C93.7191 38.9636 94.1765 38.7518 94.6591 38.6054C95.3209 38.4007 95.9542 38.3593 96.559 38.4812C97.1989 38.6371 97.7202 38.9509 98.1228 39.4224C98.5253 39.894 98.7767 40.4442 98.877 41.0731C98.9838 41.6811 98.8795 42.3029 98.5641 42.9385C98.4839 43.1199 98.3795 43.3052 98.2509 43.4944C98.1224 43.6835 97.9762 43.8556 97.8124 44.0107C97.376 44.4474 96.894 44.8466 96.3664 45.2085C95.8662 45.5561 95.2989 45.8251 94.6646 46.0155C94.2578 46.1398 93.84 46.2263 93.4112 46.2748C93.0099 46.309 92.6036 46.2497 92.1924 46.097C92.0461 46.0509 91.9455 46.0421 91.8905 46.0707C91.8565 46.1059 91.8164 46.1966 91.7702 46.3429C91.6439 46.6706 91.5593 47.0114 91.5165 47.3655C91.4738 47.7195 91.4519 48.0802 91.4509 48.4474C91.4906 48.7586 91.556 48.9515 91.6473 49.0262C91.7386 49.101 91.9464 49.0976 92.2707 49.0162C92.7336 48.9325 93.1777 48.7625 93.6032 48.5062C93.8439 48.3983 94.0781 48.3114 94.3057 48.2454C94.5398 48.1584 94.774 48.0715 95.0082 47.9846C95.1181 47.9274 95.2698 47.8834 95.4633 47.8525C95.8097 47.8469 96.0609 47.9606 96.2171 48.1937C96.4008 48.4124 96.4399 48.6889 96.3345 49.0232C96.2883 49.1695 96.2318 49.3124 96.1647 49.4521C96.0977 49.5917 96.0202 49.7281 95.9323 49.8612C95.4103 50.5694 94.8062 51.1369 94.1203 51.5637C93.4343 51.9905 92.6202 52.2046 91.6779 52.206C90.3882 52.1437 89.443 51.5354 88.8423 50.3811C88.5277 49.7765 88.3653 49.1624 88.3553 48.539C88.3452 47.9156 88.3835 47.2845 88.4702 46.6457C88.5218 46.4092 88.5734 46.1728 88.625 45.9364C88.7041 45.6857 88.7694 45.4422 88.821 45.2058ZM96.3126 41.8836C96.3587 41.7374 96.3878 41.6087 96.3999 41.4977C96.4186 41.3657 96.3822 41.2624 96.291 41.1877C96.1711 41.0579 95.9666 41.0509 95.6774 41.1664C95.5807 41.1818 95.4911 41.211 95.4086 41.2539C95.3262 41.2968 95.23 41.3468 95.1201 41.404C94.743 41.6526 94.3978 41.9458 94.0846 42.2834C93.7922 42.6276 93.5103 42.9752 93.2388 43.326C93.0882 43.4393 93.0624 43.5575 93.1614 43.6806C93.19 43.7355 93.2357 43.7729 93.2983 43.7927C93.3885 43.7982 93.4578 43.797 93.5061 43.7893C94.6111 43.5636 95.513 42.9982 96.2121 42.0931C96.2461 42.0579 96.2698 42.0194 96.2829 41.9776C96.3027 41.915 96.3126 41.8836 96.3126 41.8836Z"
    fill="currentColor" />
  <path
    d="M74.5488 37.8089C74.6708 37.6407 74.7928 37.4724 74.9148 37.3042C75.0368 37.1359 75.1659 36.9814 75.3022 36.8406C76.0089 35.9839 76.84 35.3157 77.7953 34.836C78.0844 34.7205 78.3532 34.633 78.6017 34.5736C78.8711 34.5207 79.1415 34.5371 79.4131 34.6228C79.8728 34.7678 80.2021 34.9981 80.4012 35.3136C80.6003 35.6291 80.7379 35.9941 80.8139 36.4085C80.859 36.6295 80.8695 36.8511 80.8454 37.0732C80.8213 37.2953 80.8076 37.5207 80.8044 37.7494C80.9495 37.7263 81.0561 37.6795 81.1243 37.6091C81.199 37.5178 81.26 37.4337 81.3073 37.3567C81.648 37.0048 81.9926 36.677 82.3411 36.3735C82.7104 36.0765 83.1117 35.824 83.5448 35.6161C84.3155 35.2849 85.0697 35.2242 85.8075 35.434C86.5454 35.6438 87.0606 36.2314 87.3534 37.1966C87.5207 37.6859 87.5978 38.1696 87.5847 38.6479C87.5717 39.1262 87.5377 39.5979 87.4829 40.063C87.3457 41.0075 87.1596 41.9251 86.9246 42.8157C86.6895 43.7064 86.3781 44.5845 85.9902 45.4499C85.7748 45.8414 85.5908 46.2427 85.4381 46.654C85.2919 47.0444 85.1321 47.4419 84.9585 47.8465C84.8717 48.0489 84.8168 48.2957 84.7938 48.5871C84.7631 48.8301 84.6521 49.0363 84.4608 49.2057C84.2904 49.3816 84.0805 49.4647 83.8309 49.4549C83.5956 49.4725 83.3834 49.4171 83.1942 49.2885C83.0325 49.1456 82.9115 48.9466 82.8312 48.6916C82.7981 48.3595 82.7931 48.0478 82.8161 47.7565C82.9368 47.0824 83.0471 46.4051 83.147 45.7245C83.2468 45.0439 83.3434 44.3737 83.4367 43.714C83.5267 43.2829 83.6272 42.8552 83.7381 42.4308C83.8699 42.0129 84.0017 41.5951 84.1336 41.1772C84.2247 40.8154 84.2917 40.4575 84.3345 40.1035C84.3772 39.7494 84.4338 39.3882 84.504 39.0199C84.5161 38.9088 84.5177 38.7945 84.5089 38.6768C84.5209 38.5658 84.4879 38.452 84.4098 38.3355C84.147 38.3674 83.9024 38.4511 83.676 38.5864C83.4561 38.7008 83.2263 38.8465 82.9867 39.0236C82.5833 39.3558 82.1804 39.7226 81.7781 40.124C81.4033 40.5112 81.0461 40.9153 80.7065 41.3365C80.4152 41.75 80.1207 42.174 79.8228 42.6084C79.5525 43.0285 79.2997 43.4656 79.0646 43.9197C78.991 44.0803 78.9278 44.2441 78.875 44.4113C78.8289 44.5575 78.7619 44.6972 78.674 44.8302C78.4015 45.5483 77.9315 45.8365 77.2641 45.6949C76.6253 45.6082 76.3134 45.1767 76.3286 44.4005C76.3362 44.0123 76.3751 43.6341 76.4454 43.2658C76.5365 42.904 76.593 42.5428 76.6149 42.1821C76.7434 41.5565 76.879 40.9446 77.0218 40.3464C77.1854 39.7548 77.3491 39.1633 77.5127 38.5717C77.5523 38.4463 77.544 38.3633 77.4879 38.3226C77.3428 38.3458 77.2295 38.4134 77.1482 38.5256C77.0735 38.6169 76.9987 38.7082 76.924 38.7994C75.3885 40.6811 74.2303 42.7507 73.4492 45.0082C73.4031 45.1545 73.3399 45.3183 73.2597 45.4998C73.1795 45.6812 73.0608 45.839 72.9036 45.9732C72.5067 46.2845 72.0857 46.3814 71.6403 46.2638C71.1884 46.1672 70.8546 45.8781 70.639 45.3966C70.5157 45.0591 70.4711 44.6545 70.505 44.1828C70.5411 43.4132 70.6013 42.6396 70.6858 41.8623C70.7702 41.0849 70.8722 40.3246 70.9919 39.5813C71.1224 38.6577 71.2706 37.7511 71.4364 36.8615C71.6087 35.9511 71.8333 35.0571 72.1101 34.1797C72.1815 33.8806 72.2771 33.5776 72.3968 33.2708C72.5166 32.964 72.6748 32.6809 72.8716 32.4213C73.0694 32.2311 73.3096 32.0886 73.5922 31.994C73.8747 31.8993 74.1276 31.8987 74.3508 31.9921C74.6224 32.0778 74.8259 32.2338 74.9612 32.4603C75.1174 32.6933 75.1944 32.9589 75.1923 33.2568C75.2177 33.5405 75.1875 33.8181 75.1019 34.0897C75.0437 34.347 74.9893 34.6285 74.9388 34.9342C74.7994 35.7402 74.6364 36.5846 74.4497 37.4676C74.4168 37.572 74.4498 37.6858 74.5488 37.8089Z"
    fill="currentColor" />
  <path
    d="M56.0702 38.423C55.9371 38.3351 55.8041 38.2472 55.671 38.1593C55.5654 38.0571 55.4461 37.962 55.313 37.8741C52.8144 35.8913 51.9214 33.3699 52.6341 30.3097C52.8537 29.3223 53.2801 28.4805 53.9132 27.7844C54.5463 27.0882 55.3488 26.5833 56.3206 26.2697C56.9341 26.0727 57.5289 26.0076 58.1051 26.0745C58.6812 26.1414 59.2124 26.4238 59.6985 26.9218C59.8601 27.0647 60.0015 27.2356 60.1225 27.4346C60.2644 27.6401 60.3579 27.8534 60.403 28.0744C60.9831 30.0951 60.6142 31.9198 59.2963 33.5486C59.1612 33.7586 58.9589 33.8901 58.6895 33.9429C58.4411 34.0024 58.219 33.9782 58.0232 33.8706C57.5559 33.6772 57.3864 33.2677 57.5149 32.642C57.6072 32.3495 57.6961 32.0675 57.7818 31.7959C57.895 31.51 57.9735 31.2246 58.0174 30.9398C58.069 30.7034 58.086 30.4676 58.0683 30.2323C58.0782 29.9827 58.0396 29.7408 57.9527 29.5067C57.8019 29.1834 57.5716 29.0763 57.2615 29.1853C56.9449 29.3151 56.6674 29.5032 56.4288 29.7495C56.1969 29.975 55.9864 30.2417 55.7974 30.5496C55.4689 31.227 55.391 31.9835 55.5639 32.819C55.7576 33.6612 56.0976 34.3313 56.5837 34.8292C56.8796 35.1293 57.1853 35.398 57.5009 35.6354C57.8231 35.8519 58.1695 36.0646 58.5401 36.2734C58.715 36.3745 58.8761 36.4827 59.0235 36.5981C59.1917 36.7201 59.3633 36.8317 59.5381 36.9328C59.9593 37.2724 60.2052 37.6945 60.2757 38.1992C60.3528 38.6829 60.2496 39.1557 59.9661 39.6176C59.7375 40.0509 59.3759 40.3962 58.8812 40.6537C58.2568 41.031 57.596 41.3049 56.899 41.4756C56.202 41.6462 55.4978 41.8031 54.7864 41.9462C54.3511 42.0156 53.9223 42.0641 53.5001 42.0917C53.0922 42.1468 52.6694 42.1398 52.2318 42.0707C52.0372 42.0322 51.8491 41.9729 51.6677 41.8927C51.5072 41.8191 51.3395 41.7317 51.1646 41.6306C50.695 41.2987 50.4772 40.8969 50.5111 40.4252C50.5385 39.9744 50.6813 39.5945 50.9396 39.2855C51.1364 39.0259 51.3721 38.8246 51.647 38.6816C51.8602 38.5881 52.057 38.5468 52.2374 38.5578C52.4386 38.5753 52.6063 38.6627 52.7405 38.8198C52.8603 38.9495 52.9758 39.0204 53.0869 39.0325C53.1979 39.0446 53.3123 39.0462 53.4299 39.0373C53.7751 38.9625 54.1171 38.8981 54.4557 38.8441C54.8152 38.7967 55.1676 38.7356 55.5128 38.6607C55.6096 38.6453 55.7096 38.6194 55.813 38.5831C55.9163 38.5468 56.002 38.4934 56.0702 38.423Z"
    fill="currentColor" />
  <path
    d="M53.9924 14.1643C54.3267 14.2697 54.545 14.4879 54.6474 14.8188C54.7772 15.1355 54.741 15.4686 54.5388 15.8183C54.3773 16.1119 54.219 16.3951 54.0641 16.6678C53.93 16.9471 53.7751 17.2198 53.5992 17.486C53.5322 17.6256 53.4684 17.7548 53.408 17.8736C53.3685 17.999 53.3465 18.1414 53.3422 18.3008C53.2994 18.6548 53.1125 18.883 52.7816 18.9854C52.4298 19.0811 52.1302 18.9751 51.8827 18.6673C51.5934 18.3464 51.4905 17.9808 51.574 17.5707C51.642 17.0638 51.7655 16.5629 51.9446 16.0681C52.1446 15.5799 52.3726 15.112 52.6286 14.6644C52.7561 14.406 52.9474 14.2366 53.2024 14.1563C53.4575 14.0759 53.7208 14.0786 53.9924 14.1643Z"
    fill="currentColor" />
  <path
    d="M37.8124 33.767C38.405 33.5634 38.8997 33.306 39.2965 32.9947C39.8374 32.591 40.3711 32.1736 40.8976 31.7425C41.445 31.3179 41.9468 30.856 42.403 30.3566C42.4502 30.2797 42.4909 30.2236 42.525 30.1884C42.5656 30.1323 42.5958 30.0729 42.6156 30.0102C42.7749 29.5781 43.1113 29.3856 43.6248 29.4327C44.1185 29.5425 44.4176 29.8321 44.5222 30.3016C44.6014 30.4874 44.6251 30.6672 44.5933 30.8409C44.589 31.0003 44.5571 31.174 44.4978 31.3621C44.0649 32.443 43.4363 33.4163 42.6119 34.2818C41.5963 35.3167 40.4376 36.0768 39.136 36.5621C38.8468 36.6776 38.5571 36.7585 38.2669 36.8048C37.9909 36.8785 37.6968 36.9006 37.3845 36.871C36.8227 36.8316 36.3169 36.6146 35.867 36.22C35.4106 35.8463 35.0982 35.3802 34.9299 34.8217C34.8407 34.449 34.7757 34.0724 34.7349 33.692C34.7007 33.2907 34.6874 32.896 34.695 32.5079C34.6673 31.6492 34.7192 30.7926 34.8509 29.9383C34.9826 29.0839 35.1247 28.2329 35.2773 27.3851C35.4793 26.1624 35.7296 24.932 36.0283 23.6939C36.3061 22.4492 36.6362 21.2209 37.0184 20.0092C37.0909 19.7794 37.1129 19.637 37.0843 19.582C37.0557 19.527 36.9094 19.4809 36.6455 19.4436C36.3542 19.4206 36.0595 19.408 35.7615 19.4059C35.4493 19.3763 35.1403 19.3363 34.8346 19.2858C34.4531 19.2573 34.0935 19.0864 33.7559 18.7732C33.4523 18.4247 33.3422 18.0454 33.4257 17.6353C33.5157 17.2043 33.7531 16.8886 34.1379 16.6884C34.5095 16.53 34.8789 16.4513 35.2461 16.4523C35.6551 16.4664 36.0641 16.4806 36.4732 16.4948C36.8613 16.5024 37.2566 16.5237 37.659 16.5588C37.9229 16.5961 38.0928 16.6037 38.1686 16.5817C38.2302 16.5322 38.3142 16.3749 38.4208 16.1099C38.6658 15.4062 38.9493 14.7261 39.2712 14.0696C39.5789 13.3856 39.9388 12.7181 40.3509 12.0671C40.5136 11.8427 40.6658 11.6151 40.8075 11.3841C40.9768 11.1389 41.1708 10.9244 41.3895 10.7408C41.5676 10.6132 41.7391 10.5065 41.904 10.4207C42.0755 10.314 42.258 10.2452 42.4515 10.2143C42.9341 10.068 43.3795 10.1855 43.7875 10.5669C43.9503 10.779 44.0196 10.9962 43.9955 11.2183C43.9923 11.447 43.9335 11.6696 43.8192 11.8863C43.6324 12.3327 43.4039 12.766 43.1335 13.1861C42.8698 13.5853 42.6412 14.0186 42.4478 14.4859C42.2808 14.8697 42.1033 15.2502 41.9154 15.6273C41.7484 16.0111 41.5781 16.4053 41.4045 16.81C41.3452 16.998 41.3194 17.1162 41.3271 17.1646C41.3623 17.1987 41.4844 17.2487 41.6933 17.3146C42.1111 17.4464 42.5114 17.5612 42.894 17.6589C43.2767 17.7567 43.6665 17.8682 44.0634 17.9934C44.7738 18.2175 45.2835 18.6769 45.5927 19.3717C45.6851 19.5157 45.7396 19.6707 45.7561 19.8368C45.8001 19.9885 45.8095 20.1407 45.7843 20.2936C45.714 20.6619 45.5003 20.9391 45.143 21.125C44.7923 21.29 44.4905 21.2637 44.2375 21.0461C44.1957 21.0329 44.1435 21.0164 44.0808 20.9967C44.0456 20.9626 43.9934 20.9461 43.9241 20.9472C43.4118 20.9694 42.9186 20.8942 42.4447 20.7217C41.9916 20.5558 41.515 20.4284 41.0147 20.3395L40.5759 20.2011C40.3252 20.122 40.1603 20.2078 40.0812 20.4585C39.9978 20.8687 39.8934 21.2722 39.7682 21.6692C39.6496 22.0452 39.5381 22.435 39.4338 22.8386C39.1526 23.8755 38.9028 24.9223 38.6843 25.979C38.4658 27.0357 38.2819 28.0918 38.1327 29.1473C38.0306 29.6894 37.939 30.2348 37.8578 30.7835C37.804 31.3179 37.7679 31.8693 37.7494 32.4377C37.7318 32.6389 37.7352 32.8467 37.7595 33.0611C37.7837 33.2755 37.8014 33.5108 37.8124 33.767Z"
    fill="currentColor" />
  <path
    d="M31.8411 16.3767C31.1496 16.4571 30.6536 16.2088 30.3533 15.6316C30.2598 15.4184 30.2349 15.1693 30.2788 14.8845C30.3227 14.5998 30.4365 14.3485 30.62 14.1307C30.8311 13.8987 31.1092 13.7452 31.4544 13.6704C31.8062 13.5746 32.1284 13.5729 32.4209 13.6651C33.0267 13.8563 33.3452 14.2668 33.3761 14.8968C33.4015 15.1805 33.3296 15.445 33.1603 15.6902C33.0186 15.9211 32.8031 16.0944 32.514 16.2099C32.404 16.2671 32.2869 16.3106 32.1627 16.3403C32.066 16.3557 31.9588 16.3678 31.8411 16.3767ZM28.9918 29.7776C28.937 30.2428 28.7023 30.5133 28.2878 30.5893C27.8525 30.6587 27.4896 30.4983 27.1992 30.108C27.0782 29.909 27.0056 29.7024 26.9813 29.488C26.9571 29.2736 26.9361 29.0487 26.9184 28.8134C26.948 28.5012 26.9809 28.1785 27.0171 27.8453C27.0742 27.5187 27.128 27.2026 27.1785 26.8969C27.3827 25.8128 27.6077 24.7352 27.8537 23.6642C28.1272 22.5789 28.4705 21.5272 28.8836 20.5089C28.977 20.2857 29.0808 20.0657 29.1951 19.8491C29.316 19.6116 29.4825 19.4114 29.6946 19.2486C29.865 19.0727 30.0535 18.9484 30.2602 18.8757C30.4878 18.8097 30.7269 18.8162 30.9776 18.8953C31.4516 19.0678 31.7172 19.4273 31.7746 19.9737C31.8439 20.4091 31.8094 20.8461 31.671 21.2849L30.3067 25.6096C30.2067 25.8537 30.0903 26.1501 29.9573 26.4987C29.8244 26.8472 29.692 27.2305 29.5602 27.6483C29.4547 27.9826 29.346 28.3273 29.2339 28.6825C29.1428 29.0442 29.0621 29.4093 28.9918 29.7776Z"
    fill="currentColor" />
</svg>
